<svg width="24" height="25" viewBox="0 0 24 25" fill="none" xmlns="http://www.w3.org/2000/svg">
<path d="M21.4581 2.95514C21.3419 2.8548 21.2005 2.78806 21.0492 2.76213C20.8979 2.73619 20.7423 2.75203 20.5994 2.80795L1.59998 10.2433C1.33071 10.348 1.10275 10.5373 0.950407 10.7828C0.798064 11.0283 0.729587 11.3166 0.755286 11.6043C0.780984 11.8921 0.899467 12.1637 1.0929 12.3783C1.28633 12.5929 1.54423 12.7389 1.82779 12.7942L6.7506 13.7608V19.2498C6.74963 19.5488 6.83848 19.8412 7.00564 20.0891C7.1728 20.337 7.41056 20.529 7.6881 20.6401C7.96522 20.7533 8.26997 20.7805 8.56274 20.7181C8.8555 20.6557 9.12272 20.5067 9.32967 20.2905L11.7034 17.8286L15.4694 21.1248C15.7411 21.3658 16.0915 21.4992 16.4547 21.4998C16.6138 21.4997 16.772 21.4747 16.9234 21.4258C17.1709 21.3472 17.3934 21.2053 17.5689 21.014C17.7444 20.8227 17.8668 20.5887 17.9237 20.3355L21.729 3.78108C21.7631 3.63178 21.7558 3.47603 21.7081 3.33053C21.6604 3.18503 21.574 3.05527 21.4581 2.95514ZM15.7262 6.33014L7.32717 12.3451L2.67717 11.433L15.7262 6.33014ZM8.2506 19.2498V14.7986L10.5747 16.8367L8.2506 19.2498ZM16.4565 19.9998L8.70529 13.203L19.8615 5.20702L16.4565 19.9998Z" fill="#2094F3"/>
</svg>
