<svg width="19" height="18" viewBox="0 0 19 18" fill="none" xmlns="http://www.w3.org/2000/svg">
<path d="M16.25 3.375H2.75C2.60082 3.375 2.45774 3.43426 2.35225 3.53975C2.24676 3.64524 2.1875 3.78832 2.1875 3.9375V13.5C2.1875 13.7984 2.30603 14.0845 2.517 14.2955C2.72798 14.5065 3.01413 14.625 3.3125 14.625H15.6875C15.9859 14.625 16.272 14.5065 16.483 14.2955C16.694 14.0845 16.8125 13.7984 16.8125 13.5V3.9375C16.8125 3.78832 16.7532 3.64524 16.6477 3.53975C16.5423 3.43426 16.3992 3.375 16.25 3.375ZM14.8037 4.5L9.5 9.36211L4.19633 4.5H14.8037ZM15.6875 13.5H3.3125V5.21648L9.11961 10.5398C9.22338 10.6351 9.35913 10.688 9.5 10.688C9.64087 10.688 9.77662 10.6351 9.88039 10.5398L15.6875 5.21648V13.5Z" fill="#2094F3"/>
</svg>
