<svg width="19" height="18" viewBox="0 0 19 18" fill="none" xmlns="http://www.w3.org/2000/svg">
<path d="M16.1354 11.1416L12.823 9.65728L12.8138 9.65306C12.6419 9.57951 12.4543 9.55 12.268 9.56718C12.0818 9.58437 11.9028 9.64772 11.7472 9.7515C11.7289 9.7636 11.7113 9.77675 11.6945 9.79087L9.98305 11.2499C8.89883 10.7232 7.77946 9.61228 7.25282 8.54212L8.71391 6.8047C8.72798 6.78712 8.74133 6.76955 8.75399 6.75056C8.85554 6.59538 8.91716 6.41751 8.93335 6.23276C8.94954 6.04802 8.91981 5.86213 8.8468 5.69165V5.68322L7.35829 2.36517C7.26178 2.14247 7.09583 1.95695 6.88522 1.83631C6.6746 1.71567 6.43062 1.66638 6.18969 1.6958C5.23694 1.82117 4.3624 2.28907 3.72941 3.01211C3.09643 3.73515 2.74828 4.66389 2.75001 5.62486C2.75001 11.2077 7.29219 15.7499 12.875 15.7499C13.836 15.7516 14.7647 15.4034 15.4878 14.7705C16.2108 14.1375 16.6787 13.2629 16.8041 12.3102C16.8335 12.0693 16.7844 11.8254 16.6638 11.6148C16.5433 11.4042 16.358 11.2382 16.1354 11.1416ZM12.875 14.6249C10.4889 14.6223 8.20119 13.6732 6.51392 11.9859C4.82666 10.2987 3.87761 8.01101 3.87501 5.62486C3.87236 4.93825 4.11973 4.27415 4.57091 3.75659C5.0221 3.23903 5.64625 2.90339 6.3268 2.81236C6.32653 2.81516 6.32653 2.81799 6.3268 2.8208L7.80337 6.12548L6.35001 7.86501C6.33525 7.88199 6.32185 7.90009 6.30993 7.91916C6.20412 8.08152 6.14205 8.26846 6.12973 8.46187C6.11741 8.65528 6.15526 8.84859 6.23962 9.02306C6.87665 10.326 8.18938 11.6288 9.50633 12.2652C9.68209 12.3487 9.87652 12.3853 10.0706 12.3712C10.2647 12.3572 10.4519 12.293 10.6138 12.185C10.6318 12.1729 10.6492 12.1597 10.6658 12.1456L12.3751 10.6874L15.6798 12.1674C15.6798 12.1674 15.6854 12.1674 15.6875 12.1674C15.5976 12.849 15.2624 13.4744 14.7448 13.9267C14.2271 14.379 13.5624 14.6272 12.875 14.6249Z" fill="#2094F3"/>
</svg>
