<svg width="24" height="25" viewBox="0 0 24 25" fill="none" xmlns="http://www.w3.org/2000/svg">
<path d="M20.5603 7.25001L17.25 3.93969C17.1112 3.7998 16.946 3.68889 16.764 3.61341C16.582 3.53792 16.3867 3.49938 16.1897 3.50001H4.5C4.10218 3.50001 3.72064 3.65804 3.43934 3.93935C3.15804 4.22065 3 4.60218 3 5.00001V20C3 20.3978 3.15804 20.7794 3.43934 21.0607C3.72064 21.342 4.10218 21.5 4.5 21.5H19.5C19.8978 21.5 20.2794 21.342 20.5607 21.0607C20.842 20.7794 21 20.3978 21 20V8.31032C21.0006 8.11326 20.9621 7.91805 20.8866 7.73602C20.8111 7.554 20.7002 7.38879 20.5603 7.25001ZM19.5 20H17.25V14.75C17.25 14.3522 17.092 13.9707 16.8107 13.6893C16.5294 13.408 16.1478 13.25 15.75 13.25H8.25C7.85218 13.25 7.47064 13.408 7.18934 13.6893C6.90804 13.9707 6.75 14.3522 6.75 14.75V20H4.5V5.00001H16.1897L19.5 8.31032V20ZM15 7.25001C15 7.44892 14.921 7.63969 14.7803 7.78034C14.6397 7.92099 14.4489 8.00001 14.25 8.00001H9C8.80109 8.00001 8.61032 7.92099 8.46967 7.78034C8.32902 7.63969 8.25 7.44892 8.25 7.25001C8.25 7.0511 8.32902 6.86033 8.46967 6.71968C8.61032 6.57903 8.80109 6.50001 9 6.50001H14.25C14.4489 6.50001 14.6397 6.57903 14.7803 6.71968C14.921 6.86033 15 7.0511 15 7.25001Z" fill="#FEFEFE"/>
</svg>
