<svg width="24" height="25" viewBox="0 0 24 25" fill="none" xmlns="http://www.w3.org/2000/svg">
<path d="M22.2806 10.4702L14.7806 2.97021C14.6757 2.86526 14.5421 2.79375 14.3967 2.76473C14.2512 2.73572 14.1004 2.75049 13.9633 2.80719C13.8262 2.86389 13.709 2.95996 13.6265 3.08326C13.5441 3.20657 13.5 3.35156 13.4999 3.4999V7.28271C11.0681 7.49083 8.38213 8.68146 6.17244 10.5555C3.51182 12.813 1.85526 15.7221 1.50744 18.7465C1.48026 18.9816 1.52794 19.2193 1.64368 19.4258C1.75943 19.6322 1.93735 19.7969 2.15212 19.8964C2.36689 19.9959 2.60757 20.0251 2.83991 19.9799C3.07225 19.9347 3.28441 19.8174 3.44619 19.6446C4.47744 18.5468 8.14682 15.0752 13.4999 14.7696V18.4999C13.5 18.6482 13.5441 18.7932 13.6265 18.9165C13.709 19.0398 13.8262 19.1359 13.9633 19.1926C14.1004 19.2493 14.2512 19.2641 14.3967 19.2351C14.5421 19.206 14.6757 19.1345 14.7806 19.0296L22.2806 11.5296C22.4208 11.389 22.4996 11.1985 22.4996 10.9999C22.4996 10.8013 22.4208 10.6108 22.2806 10.4702ZM14.9999 16.6896V13.9999C14.9999 13.801 14.9209 13.6102 14.7803 13.4696C14.6396 13.3289 14.4489 13.2499 14.2499 13.2499C11.6174 13.2499 9.05338 13.9371 6.629 15.2936C5.39427 15.9876 4.24383 16.8219 3.20057 17.7799C3.74432 15.5449 5.11494 13.4196 7.14276 11.6993C9.31963 9.85333 11.9765 8.7499 14.2499 8.7499C14.4489 8.7499 14.6396 8.67088 14.7803 8.53023C14.9209 8.38957 14.9999 8.19881 14.9999 7.9999V5.31115L20.6896 10.9999L14.9999 16.6896Z" fill="#333333"/>
</svg>
